<svg width="512" height="512" viewBox="0 0 512 512" fill="none" xmlns="http://www.w3.org/2000/svg">
<path d="M230 144.602H467.543C487.953 144.602 504.5 161.145 504.5 181.555V337.168C504.5 357.578 487.953 374.121 467.543 374.121C458.523 374.121 451.859 382.531 453.918 391.312L476.434 487.332C477.461 491.715 472.035 494.637 468.945 491.367L362.141 378.496C359.496 375.703 355.82 374.121 351.977 374.121H230C209.59 374.121 193.043 357.574 193.043 337.164V181.555C193.043 161.145 209.59 144.602 230 144.602V144.602Z" fill="#8ABE50"/>
<path d="M467.543 144.602H417.043C437.453 144.602 454 161.145 454 181.555V337.168C454 357.578 437.453 374.121 417.043 374.121C408.024 374.121 401.359 382.531 403.418 391.312L413.024 432.27L468.945 491.367C472.035 494.637 477.461 491.715 476.434 487.336L453.918 391.312C451.859 382.531 458.524 374.121 467.543 374.121C487.953 374.121 504.5 357.578 504.5 337.168V181.555C504.5 161.145 487.953 144.602 467.543 144.602V144.602Z" fill="#7BA840"/>
<path d="M282 20.5H44.457C24.0469 20.5 7.5 37.0469 7.5 57.4531V213.066C7.5 233.477 24.0469 250.023 44.457 250.023C53.4766 250.023 60.1406 258.43 58.082 267.211L35.5664 363.234C34.5391 367.613 39.9648 370.535 43.0547 367.266L149.859 254.398C152.504 251.605 156.18 250.023 160.027 250.023H282C302.41 250.023 318.957 233.477 318.957 213.066V57.4531C318.957 37.0469 302.41 20.5 282 20.5Z" fill="#FFB123"/>
<path d="M99.5274 254.398L48.4219 308.406L35.5626 363.234C34.5352 367.613 39.961 370.535 43.0547 367.266L149.859 254.398C152.504 251.605 156.18 250.023 160.023 250.023H109.691C105.844 250.023 102.168 251.605 99.5274 254.398Z" fill="#FF901D"/>
<path d="M282 20.5H231.668C252.078 20.5 268.621 37.0469 268.621 57.457V213.066C268.621 233.477 252.078 250.023 231.668 250.023H282C302.41 250.023 318.957 233.477 318.957 213.066V57.4531C318.957 37.0469 302.41 20.5 282 20.5Z" fill="#FF901D"/>
<path d="M193.765 172.937C196.673 172.937 199.078 174.006 200.98 176.143C202.993 178.154 204 180.794 204 184.063C204 187.206 202.993 189.846 200.98 191.983C199.078 193.994 196.673 195 193.765 195H139.235C136.327 195 133.866 193.931 131.852 191.794C129.951 189.531 129 186.766 129 183.497V74.5029C129 71.2343 130.007 68.5314 132.02 66.3943C134.034 64.1314 136.606 63 139.738 63C142.535 63 144.94 64.1314 146.953 66.3943C148.966 68.5314 149.973 71.2343 149.973 74.5029V172.937H193.765Z" fill="white"/>
<path d="M403 259.5C403 271.325 400.883 282.194 396.649 292.108C392.416 301.903 386.546 309.667 379.041 315.4C371.632 321.133 363.261 324 353.928 324C344.594 324 336.175 321.133 328.67 315.4C321.261 309.667 315.44 301.903 311.206 292.108C307.069 282.194 305 271.325 305 259.5C305 247.675 307.069 236.865 311.206 227.071C315.44 217.157 321.261 209.333 328.67 203.6C336.175 197.867 344.594 195 353.928 195C363.261 195 371.632 197.867 379.041 203.6C386.546 209.333 392.416 217.157 396.649 227.071C400.883 236.865 403 247.675 403 259.5ZM384.237 259.5C384.237 251.497 382.938 244.271 380.34 237.821C377.742 231.251 374.134 226.056 369.515 222.233C364.897 218.411 359.701 216.5 353.928 216.5C348.058 216.5 342.814 218.411 338.196 222.233C333.674 225.936 330.113 231.072 327.515 237.642C325.014 244.211 323.763 251.497 323.763 259.5C323.763 267.503 325.014 274.789 327.515 281.358C330.113 287.928 333.674 293.124 338.196 296.946C342.814 300.649 348.058 302.5 353.928 302.5C359.701 302.5 364.897 300.589 369.515 296.767C374.134 292.944 377.742 287.808 380.34 281.358C382.938 274.789 384.237 267.503 384.237 259.5Z" fill="white"/>
<path d="M326.457 213.066V57.4531C326.457 32.9414 306.512 13 282 13H44.457C19.9414 13 0 32.9414 0 57.4531V213.066C0 237.578 19.9414 257.523 44.457 257.523C46.4492 257.523 48.3086 258.418 49.5469 259.984C50.7852 261.547 51.2344 263.559 50.7773 265.5L28.2617 361.52C27.0195 366.832 29.4062 372.137 34.2109 374.723C36.0234 375.699 37.9727 376.176 39.8984 376.176C43.0664 376.176 46.1719 374.887 48.5039 372.422L155.309 259.555C156.527 258.262 158.246 257.523 160.023 257.523H282C306.512 257.523 326.457 237.578 326.457 213.066V213.066ZM144.41 249.242L45.4805 353.789L65.3828 268.926C66.8906 262.496 65.4023 255.84 61.3008 250.664C57.1992 245.488 51.0586 242.523 44.457 242.523C28.2148 242.523 15 229.309 15 213.066V57.4531C15 41.2148 28.2148 28 44.457 28H282C298.242 28 311.457 41.2148 311.457 57.4531V213.066C311.457 229.309 298.242 242.523 282 242.523H160.023C154.145 242.523 148.453 244.973 144.41 249.242V249.242Z" fill="black"/>
<path d="M467.543 137.102H353.957C349.813 137.102 346.457 140.457 346.457 144.602C346.457 148.742 349.813 152.102 353.957 152.102H467.543C483.785 152.102 497 165.312 497 181.555V337.164C497 353.406 483.785 366.621 467.543 366.621C460.941 366.621 454.801 369.59 450.699 374.766C446.598 379.941 445.109 386.594 446.617 393.023L466.516 477.887L367.59 373.344C363.551 369.074 357.859 366.621 351.977 366.621H230C213.758 366.621 200.543 353.406 200.543 337.164V285.023C200.543 280.879 197.187 277.523 193.043 277.523C188.902 277.523 185.543 280.879 185.543 285.023V337.164C185.543 361.68 205.488 381.621 230 381.621H351.977C353.754 381.621 355.473 382.363 356.695 383.652L463.5 496.52C465.832 498.984 468.934 500.273 472.102 500.273C474.027 500.273 475.98 499.797 477.793 498.82C482.594 496.234 484.984 490.93 483.738 485.621L461.223 389.598C460.766 387.656 461.215 385.645 462.453 384.082C463.695 382.52 465.551 381.621 467.543 381.621C492.059 381.621 512 361.68 512 337.164V181.555C512 157.043 492.059 137.102 467.543 137.102V137.102Z" fill="black"/>
</svg>
