<svg width="422" height="321" viewBox="0 0 422 321" fill="none" xmlns="http://www.w3.org/2000/svg">
<path d="M119 215H354.41C356.047 214.871 357.68 215.266 359.078 216.129L422 260.844V0H119V215ZM181.398 148.34C181.398 148.281 181.43 148.203 181.434 148.148L184.172 113.359C184.816 104.008 191.762 96.3008 201 94.6992V82.3008C201 46.4023 230.102 17.3008 266 17.3008C301.898 17.3008 331 46.4023 331 82.3008V94.6992C340.23 96.2969 347.172 103.996 347.812 113.344L350.582 148.125C350.582 148.18 350.559 148.234 350.562 148.289C350.586 148.664 350.531 149.039 350.531 149.418C350.5 154.781 348.332 159.914 344.508 163.676C340.879 167.227 336.07 169.313 331 169.539V175.176C331 188.965 320.27 201 306.48 201H270.762C266.344 201 262.762 197.418 262.762 193C262.762 188.582 266.344 185 270.762 185H306.48C311.445 185 315 180.141 315 175.176V170H312.734C308.496 169.918 305.023 166.605 304.754 162.371L300.699 103.102C300.551 100.945 301.328 98.832 302.836 97.2852C304.375 95.7383 306.496 94.9062 308.68 95H315V82.3008C315 55.2383 293.062 33.3008 266 33.3008C238.938 33.3008 217 55.2383 217 82.3008V95H223.32C225.5 94.8906 227.625 95.707 229.168 97.2461C230.676 98.7891 231.453 100.898 231.305 103.047L227.246 162.383C226.977 166.613 223.504 169.926 219.266 170H201.512C190.332 169.805 181.363 160.691 181.355 149.508C181.355 149.133 181.379 148.715 181.398 148.34Z" fill="#EBEBEB"/>
<path d="M103 222.266V59H0V320.348L62.9219 275.383C64.293 274.441 65.9258 273.961 67.5898 274H303V231H111.027C106.609 231 103 226.684 103 222.266V222.266Z" fill="#E7E6E6"/>
<path d="M201.512 154H211.801L214.758 111H204.211C202.063 110.863 200.203 112.488 200.051 114.637C200.051 114.691 200.043 114.535 200.039 114.594L197.348 149.297V149.453C197.344 150.613 197.781 151.73 198.566 152.582C199.328 153.418 200.383 153.93 201.512 154Z" fill="#EBEBEB"/>
<path d="M330.488 154C331.617 153.926 332.676 153.414 333.434 152.574C334.223 151.746 334.656 150.648 334.652 149.508C334.652 149.453 334.652 149.352 334.652 149.297L331.965 114.508C331.965 114.449 331.953 114.691 331.953 114.637C331.801 112.484 329.938 110.863 327.789 111H317.246L320.203 154H330.488Z" fill="#EBEBEB"/>
</svg>
