<svg height="422pt" viewBox="0 -51 422 422" width="422pt" xmlns="http://www.w3.org/2000/svg"><path d="m119 215h235.410156c1.636719-.128906 3.269532.265625 4.667969 1.128906l62.921875 44.714844v-260.84375h-303zm62.398438-66.660156c0-.058594.03125-.136719.035156-.191406l2.738281-34.789063c.644531-9.351563 7.589844-17.058594 16.828125-18.660156v-12.398438c0-35.898437 29.101562-65 65-65s65 29.101563 65 65v12.398438c9.230469 1.597656 16.171875 9.296875 16.8125 18.644531l2.769531 34.78125c0 .054688-.023437.109375-.019531.164062.023438.375-.03125.75-.03125 1.128907-.03125 5.363281-2.199219 10.496093-6.023438 14.257812-3.628906 3.550781-8.4375 5.636719-13.507812 5.863281v5.636719c0 13.789063-10.730469 25.824219-24.519531 25.824219h-35.71875c-4.417969 0-8-3.582031-8-8s3.582031-8 8-8h35.71875c4.964843 0 8.519531-4.859375 8.519531-9.824219v-5.175781h-2.265625c-4.238281-.082031-7.710937-3.394531-7.980469-7.628906l-4.054687-59.269532c-.148438-2.15625.628906-4.269531 2.136719-5.816406 1.539062-1.546875 3.660156-2.378906 5.84375-2.285156h6.320312v-12.699219c0-27.0625-21.9375-49-49-49s-49 21.9375-49 49v12.699219h6.320312c2.179688-.109375 4.304688.707031 5.847657 2.246094 1.507812 1.542968 2.285156 3.652344 2.136719 5.800781l-4.058594 59.335937c-.269532 4.230469-3.742188 7.542969-7.980469 7.617188h-17.753906c-11.179688-.195312-20.148438-9.308594-20.15625-20.492188 0-.375.023437-.792968.042969-1.167968zm0 0"/><path d="m103 222.265625v-163.265625h-103v261.347656l62.921875-44.964844c1.371094-.941406 3.003906-1.421874 4.667969-1.382812h235.410156v-43h-191.972656c-4.417969 0-8.027344-4.316406-8.027344-8.734375zm0 0"/><path d="m201.511719 154h10.289062l2.957031-43h-10.546874c-2.148438-.136719-4.007813 1.488281-4.160157 3.636719 0 .054687-.007812-.101563-.011719-.042969l-2.691406 34.703125v.15625c-.003906 1.160156.433594 2.277344 1.21875 3.128906.761719.835938 1.816406 1.347657 2.945313 1.417969zm0 0"/><path d="m330.488281 154c1.128907-.074219 2.1875-.585938 2.945313-1.425781.789062-.828125 1.222656-1.925781 1.21875-3.066407 0-.054687 0-.15625 0-.210937l-2.6875-34.789063c0-.058593-.011719.183594-.011719.128907-.152344-2.152344-2.015625-3.773438-4.164063-3.636719h-10.542968l2.957031 43zm0 0"/></svg>